<mxfile host="Electron" agent="Mozilla/5.0 (Windows NT 10.0; Win64; x64) AppleWebKit/537.36 (KHTML, like Gecko) draw.io/24.7.5 Chrome/126.0.6478.183 Electron/31.3.0 Safari/537.36" version="24.7.5">
  <diagram name="Page-1" id="58lhXlVgXIlkzn8NOYt7">
    <mxGraphModel dx="1434" dy="884" grid="1" gridSize="10" guides="1" tooltips="1" connect="1" arrows="1" fold="1" page="1" pageScale="1" pageWidth="827" pageHeight="1169" math="0" shadow="0">
      <root>
        <mxCell id="0" />
        <mxCell id="1" parent="0" />
        <mxCell id="N42i0nMDB18yHeEIXsIF-2" value="" style="swimlane;startSize=0;" vertex="1" parent="1">
          <mxGeometry x="180" y="90" width="480" height="740" as="geometry" />
        </mxCell>
        <mxCell id="N42i0nMDB18yHeEIXsIF-4" value="Anonymous User Rights" style="text;html=1;align=center;verticalAlign=middle;whiteSpace=wrap;rounded=0;" vertex="1" parent="N42i0nMDB18yHeEIXsIF-2">
          <mxGeometry x="20" y="30" width="160" height="30" as="geometry" />
        </mxCell>
        <mxCell id="N42i0nMDB18yHeEIXsIF-6" value="Update an expense" style="ellipse;whiteSpace=wrap;html=1;" vertex="1" parent="N42i0nMDB18yHeEIXsIF-2">
          <mxGeometry x="190" y="206" width="140" height="70" as="geometry" />
        </mxCell>
        <mxCell id="N42i0nMDB18yHeEIXsIF-7" value="Delete an expense" style="ellipse;whiteSpace=wrap;html=1;" vertex="1" parent="N42i0nMDB18yHeEIXsIF-2">
          <mxGeometry x="190" y="306" width="140" height="70" as="geometry" />
        </mxCell>
        <mxCell id="N42i0nMDB18yHeEIXsIF-8" value="Browse all expenses" style="ellipse;whiteSpace=wrap;html=1;" vertex="1" parent="N42i0nMDB18yHeEIXsIF-2">
          <mxGeometry x="190" y="406" width="140" height="70" as="geometry" />
        </mxCell>
        <mxCell id="N42i0nMDB18yHeEIXsIF-9" value="Browse a summary of expenses" style="ellipse;whiteSpace=wrap;html=1;" vertex="1" parent="N42i0nMDB18yHeEIXsIF-2">
          <mxGeometry x="190" y="506" width="140" height="70" as="geometry" />
        </mxCell>
        <mxCell id="N42i0nMDB18yHeEIXsIF-10" value="Browse a summary of expenses for a specific month" style="ellipse;whiteSpace=wrap;html=1;" vertex="1" parent="N42i0nMDB18yHeEIXsIF-2">
          <mxGeometry x="190" y="606" width="140" height="70" as="geometry" />
        </mxCell>
        <mxCell id="N42i0nMDB18yHeEIXsIF-5" value="Create an expense" style="ellipse;whiteSpace=wrap;html=1;" vertex="1" parent="N42i0nMDB18yHeEIXsIF-2">
          <mxGeometry x="190" y="106" width="140" height="70" as="geometry" />
        </mxCell>
        <mxCell id="N42i0nMDB18yHeEIXsIF-3" value="Anonymous User" style="shape=umlActor;html=1;verticalLabelPosition=bottom;verticalAlign=top;align=center;" vertex="1" parent="1">
          <mxGeometry x="80" y="406" width="30" height="60" as="geometry" />
        </mxCell>
        <mxCell id="N42i0nMDB18yHeEIXsIF-11" value="" style="endArrow=none;html=1;rounded=0;entryX=0;entryY=0.5;entryDx=0;entryDy=0;exitX=1;exitY=0.3333333333333333;exitDx=0;exitDy=0;exitPerimeter=0;" edge="1" parent="1" source="N42i0nMDB18yHeEIXsIF-3" target="N42i0nMDB18yHeEIXsIF-5">
          <mxGeometry width="50" height="50" relative="1" as="geometry">
            <mxPoint x="420" y="630" as="sourcePoint" />
            <mxPoint x="470" y="580" as="targetPoint" />
          </mxGeometry>
        </mxCell>
        <mxCell id="N42i0nMDB18yHeEIXsIF-12" value="" style="endArrow=none;html=1;rounded=0;entryX=0;entryY=0.5;entryDx=0;entryDy=0;exitX=1;exitY=0.3333333333333333;exitDx=0;exitDy=0;exitPerimeter=0;" edge="1" parent="1" source="N42i0nMDB18yHeEIXsIF-3" target="N42i0nMDB18yHeEIXsIF-6">
          <mxGeometry width="50" height="50" relative="1" as="geometry">
            <mxPoint x="120" y="350" as="sourcePoint" />
            <mxPoint x="380" y="280" as="targetPoint" />
          </mxGeometry>
        </mxCell>
        <mxCell id="N42i0nMDB18yHeEIXsIF-13" value="" style="endArrow=none;html=1;rounded=0;entryX=0;entryY=0.5;entryDx=0;entryDy=0;exitX=1;exitY=0.3333333333333333;exitDx=0;exitDy=0;exitPerimeter=0;" edge="1" parent="1" source="N42i0nMDB18yHeEIXsIF-3" target="N42i0nMDB18yHeEIXsIF-7">
          <mxGeometry width="50" height="50" relative="1" as="geometry">
            <mxPoint x="120" y="350" as="sourcePoint" />
            <mxPoint x="380" y="380" as="targetPoint" />
          </mxGeometry>
        </mxCell>
        <mxCell id="N42i0nMDB18yHeEIXsIF-14" value="" style="endArrow=none;html=1;rounded=0;entryX=0;entryY=0.5;entryDx=0;entryDy=0;exitX=1;exitY=0.3333333333333333;exitDx=0;exitDy=0;exitPerimeter=0;" edge="1" parent="1" source="N42i0nMDB18yHeEIXsIF-3" target="N42i0nMDB18yHeEIXsIF-8">
          <mxGeometry width="50" height="50" relative="1" as="geometry">
            <mxPoint x="120" y="350" as="sourcePoint" />
            <mxPoint x="380" y="480" as="targetPoint" />
          </mxGeometry>
        </mxCell>
        <mxCell id="N42i0nMDB18yHeEIXsIF-15" value="" style="endArrow=none;html=1;rounded=0;entryX=0;entryY=0.5;entryDx=0;entryDy=0;exitX=1;exitY=0.3333333333333333;exitDx=0;exitDy=0;exitPerimeter=0;" edge="1" parent="1" source="N42i0nMDB18yHeEIXsIF-3" target="N42i0nMDB18yHeEIXsIF-9">
          <mxGeometry width="50" height="50" relative="1" as="geometry">
            <mxPoint x="120" y="350" as="sourcePoint" />
            <mxPoint x="380" y="580" as="targetPoint" />
          </mxGeometry>
        </mxCell>
        <mxCell id="N42i0nMDB18yHeEIXsIF-16" value="" style="endArrow=none;html=1;rounded=0;entryX=0;entryY=0.5;entryDx=0;entryDy=0;exitX=1;exitY=0.3333333333333333;exitDx=0;exitDy=0;exitPerimeter=0;" edge="1" parent="1" source="N42i0nMDB18yHeEIXsIF-3" target="N42i0nMDB18yHeEIXsIF-10">
          <mxGeometry width="50" height="50" relative="1" as="geometry">
            <mxPoint x="120" y="350" as="sourcePoint" />
            <mxPoint x="380" y="680" as="targetPoint" />
          </mxGeometry>
        </mxCell>
      </root>
    </mxGraphModel>
  </diagram>
</mxfile>
